<?xml version="1.0" encoding="UTF-8"?>
<svg width="256" height="256" version="1.1" xmlns="http://www.w3.org/2000/svg" xmlns:xlink="http://www.w3.org/1999/xlink"><defs><linearGradient id="a"><stop stop-color="#f00" offset="0"/><stop stop-color="#f00" stop-opacity="0" offset="1"/></linearGradient><linearGradient id="d" x1="128.5" x2="165.7" y1="79.62" y2="79.62" gradientTransform="translate(6,-4)" gradientUnits="userSpaceOnUse" xlink:href="#a"/><linearGradient id="c" x1="128.5" x2="165.7" y1="79.62" y2="79.62" gradientTransform="translate(4,2)" gradientUnits="userSpaceOnUse" xlink:href="#a"/><linearGradient id="b" x1="128.5" x2="165.7" y1="79.62" y2="79.62" gradientTransform="translate(0,8)" gradientUnits="userSpaceOnUse" xlink:href="#a"/></defs><path d="m215.7 111.8 20.54-3.291 1.72-0.0711v35.22l-1.72-0.0711-20.54-3.291-8.607 26.49 18.55 9.41 1.433 0.9536-20.7 28.49-1.35-1.069-14.68-14.74-22.53 16.37 9.477 18.52 0.5992 1.614-33.49 10.88-0.4641-1.658-3.217-20.55h-27.85l-3.217 20.55-0.4641 1.658-33.49-10.88 0.5992-1.614 9.477-18.52-22.53-16.37-14.68 14.74-1.35 1.069-20.7-28.49 1.433-0.9536 18.55-9.41-8.607-26.49-20.54 3.291-1.72 0.0711v-35.22l1.72 0.0711 20.54 3.291 8.607-26.49-18.55-9.41-1.433-0.9536 20.7-28.49 1.35 1.069 14.68 14.74 22.53-16.37-9.477-18.52-0.5992-1.614 33.49-10.88 0.4641 1.658 3.217 20.55h27.85l3.217-20.55 0.4641-1.658 33.49 10.88-0.5992 1.614-9.477 18.52 22.53 16.37 14.68-14.74 1.35-1.069 20.7 28.49-1.433 0.9536-18.55 9.41z" fill="#808080" stroke="#000" stroke-width="1.414"/><circle cx="126.8" cy="126" r="70.72" fill="#fff" fill-opacity=".9974" stroke="#000" stroke-width="1.414"/><g transform="translate(.3798 -.9832)"><use y="115.543" width="744.09399" height="1052.3621" xlink:href="#A"/><use transform="rotate(-90,128.2,127.8)" width="744.09399" height="1052.3621" xlink:href="#A"/><rect transform="rotate(-90)" x="-132.1" y="174.8" width="8.438" height="16.88" rx="3.245" fill="#f00"/><path d="m178.3 86.9c-1.01-1.157-62.25 48.52-62.25 48.52l2.332 2.919s60.92-50.3 59.92-51.44z" fill="#1a1a1a" fill-rule="evenodd"/><text x="112.26601" y="163.513" font-family="sans-serif" font-size="24.86px" letter-spacing="0" word-spacing="0" xml:space="preserve"><tspan x="112.26601" y="163.513">µs</tspan></text><g fill="none" stroke-width="1px"><path d="m134.5 65.04c16.04 1.737 36.88 21.29 36.88 21.29" stroke="url(#d)"/><path d="m132.5 71.04c16.04 1.737 36.88 21.29 36.88 21.29" stroke="url(#c)"/><path d="m128.5 77.04c16.04 1.737 36.88 21.29 36.88 21.29" stroke="url(#b)"/></g><rect id="A" x="123.9" y="60.8" width="8.438" height="16.88" rx="3.245" fill="#4d4d4d"/></g></svg>
